<svg width="147" height="155" viewBox="0 0 147 155" fill="none" xmlns="http://www.w3.org/2000/svg">
<path d="M137.873 91.2956C136.045 100.639 132.522 109.069 127.564 116.869C126.326 118.817 124.451 119.387 122.494 119.764C121.101 120.033 119.661 120.129 118.242 120.13C91.049 120.151 63.8568 120.146 36.6644 120.145C34.1603 120.145 32.8191 119.005 32.8058 116.879C32.7931 114.842 34.2488 113.576 36.6819 113.575C63.416 113.569 90.15 113.543 116.884 113.601C120.827 113.61 123.446 111.971 125.336 108.28C133.911 91.5386 135.718 74.0575 129.533 56.2242C121.664 33.531 106.149 19.3512 83.539 15.0349C52.672 9.14212 23.1162 28.7986 15.2662 60.6225C9.09753 85.6296 15.3963 107.549 33.7835 124.751C53.8256 143.5 82.257 145.651 104.838 130.644C108.821 127.996 112.618 126.713 117.24 127.01C122.009 127.317 126.809 127.067 131.596 127.087C133.5 127.095 134.708 128.001 135.065 129.59C135.559 131.786 134.169 133.626 131.915 133.64C126.924 133.672 121.932 133.729 116.944 133.624C113.773 133.557 110.988 134.447 108.286 136.193C90.137 147.922 70.8116 150.259 50.8304 142.805C31.3802 135.55 17.7745 121.311 10.9258 100.814C2.72933 76.2822 6.46823 53.3599 21.9481 33.0199C32.9373 18.5806 47.5008 10.1684 64.9471 7.97172C86.062 5.31312 104.452 12.0377 119.614 27.6789C131.536 39.9781 137.906 55.1793 139.095 72.774C139.514 78.9807 139.096 85.0908 137.873 91.2956Z" fill="#668143"/>
<path d="M40.6544 100.654C39.3922 91.9486 38.1496 83.3822 36.8828 74.6498C61.0845 74.6498 85.072 74.6498 109.278 74.6498C108.884 77.5544 108.526 80.3506 108.124 83.1398C107.146 89.9166 106.133 96.6866 105.164 103.465C104.586 107.513 102.072 109.906 98.242 109.907C81.491 109.916 64.7397 109.915 47.9883 109.908C44.1741 109.907 41.5505 107.469 41.0344 103.499C40.9172 102.597 40.7943 101.695 40.6544 100.654ZM82.203 92.6236C82.407 89.0396 82.646 85.4576 82.802 81.8708C82.891 79.8202 81.84 78.5349 80.144 78.4105C78.5466 78.2933 77.2133 79.5549 76.981 81.4134C76.9279 81.8383 76.8778 82.2664 76.8682 82.6941C76.7323 88.6986 76.5913 94.7026 76.4807 100.707C76.4469 102.543 77.311 103.564 78.8354 103.633C80.453 103.706 81.556 102.598 81.674 100.787C81.845 98.1666 82.018 95.5476 82.203 92.6236ZM56.2225 85.6976C56.0333 84.1609 55.9407 82.6019 55.63 81.0927C55.2615 79.3029 53.5037 78.128 51.9637 78.459C50.4529 78.7837 49.6745 79.8853 49.912 81.6727C50.77 88.1296 51.6606 94.5816 52.5947 101.028C52.8618 102.871 54.217 103.834 55.8622 103.558C57.4508 103.291 57.9314 102.318 57.6994 100.18C57.1866 95.4536 56.7284 90.7196 56.2225 85.6976ZM90.053 85.4386C89.513 90.5916 88.961 95.7436 88.44 100.899C88.253 102.745 89.406 103.871 91.151 103.572C92.482 103.343 93.389 102.588 93.604 101.113C94.074 97.8906 94.541 94.6686 94.993 91.4446C95.423 88.3786 95.849 85.3122 96.248 82.2417C96.572 79.7493 95.362 78.1579 93.393 78.4301C91.931 78.6322 90.743 79.7708 90.506 81.3257C90.314 82.591 90.234 83.8752 90.053 85.4386ZM69.4456 89.7856C69.3636 86.8956 69.4069 83.9936 69.154 81.1203C68.9937 79.299 67.2933 78.1525 65.762 78.4488C64.1512 78.7605 63.28 80.0972 63.3972 82.0155C63.776 88.2166 64.1467 94.4186 64.5123 100.622C64.6278 102.582 65.6902 103.72 67.3597 103.635C68.9465 103.553 69.7471 102.544 69.7099 100.554C69.6447 97.0706 69.5396 93.5886 69.4456 89.7856Z" fill="#96A551"/>
<path d="M137.229 113.751C136.66 114.842 136.139 115.826 135.622 116.811C135.023 117.95 134.165 118.543 132.993 117.841C131.798 117.126 131.987 116.058 132.509 114.914C134.513 110.523 136.843 106.25 138.392 101.684C144.564 83.4992 143.938 65.3917 136.606 47.7357C128.748 28.8141 115.393 15.6631 97.099 8.37242C84.222 3.24072 70.8859 2.36302 57.4573 5.76172C36.0603 11.1772 20.4353 24.4719 10.5631 45.0835C4.29281 58.1749 2.40711 72.1687 4.24811 86.7066C6.31271 103.011 12.8986 117.031 23.8733 128.648C35.0508 140.479 48.5849 147.527 64.3652 149.579C81.308 151.782 96.917 147.836 111.273 138.164C111.957 137.703 112.862 137.392 113.669 137.379C118.454 137.307 123.242 137.307 128.028 137.381C128.76 137.393 129.641 137.742 130.159 138.26C130.492 138.594 130.55 139.734 130.26 140.135C129.872 140.673 129.033 141.118 128.379 141.131C124.052 141.217 119.721 141.106 115.395 141.223C114.249 141.254 112.969 141.607 112 142.238C98.688 150.917 84.226 154.921 68.6168 153.868C51.1621 152.692 35.9717 145.762 23.1827 133.151C11.8768 122.001 4.46181 108.436 1.53331 92.4286C-2.98549 67.7292 2.46931 45.593 18.0888 26.4757C28.8097 13.3541 42.3942 4.97192 58.4769 1.62552C78.5865 -2.55878 97.416 1.29442 114.331 13.6572C131.834 26.4498 142.229 44.1501 145.342 66.3636C147.674 83.0083 144.863 98.8106 137.229 113.751Z" fill="#99A856"/>
<path d="M81.644 70.9351C66.723 70.935 51.9546 70.9359 37.1861 70.9343C34.1884 70.9339 33.3877 70.0883 33.382 66.9368C33.381 66.3466 33.3813 65.7565 33.3819 65.1664C33.3854 61.9947 34.1187 61.2048 37.1826 61.1707C39.6608 61.1431 42.1395 61.1651 44.9096 61.1651C44.5437 60.3629 44.3285 59.8423 44.0751 59.3433C41.6014 54.4733 39.1065 49.6152 36.6581 44.7312C36.2618 43.9405 35.912 43.06 35.8044 42.1851C35.5286 39.9411 36.7115 38.2073 38.839 37.9626C40.4901 37.7727 42.2073 37.8025 43.8508 38.0547C46.3575 38.4394 47.9868 40.2055 49.1483 42.4842C51.2672 46.6414 53.3978 50.7922 55.4836 54.9678C55.895 55.7915 56.3239 56.2393 57.3012 56.3264C59.7489 56.5446 61.5813 57.8298 62.714 60.2143C62.9236 60.6553 63.5926 61.118 64.0536 61.1227C70.0623 61.1832 76.072 61.187 82.08 61.1184C82.572 61.1128 83.259 60.5939 83.512 60.1131C84.919 57.4404 87.017 56.2305 89.899 56.2818C90.39 56.2905 91.107 55.8217 91.352 55.3579C93.552 51.1866 95.73 47 97.795 42.7534C100.283 37.6362 104.124 37.2821 108.839 38.1381C110.842 38.5018 111.789 40.7582 111.159 42.9857C110.943 43.7484 110.585 44.4758 110.227 45.1828C107.831 49.9139 105.415 54.6341 103.011 59.3612C102.758 59.8588 102.544 60.3786 102.187 61.1639C104.606 61.1639 106.733 61.1488 108.859 61.1674C112.1 61.1956 112.809 61.9543 112.813 65.3381C112.819 70.6865 112.581 70.9351 107.463 70.9351C98.908 70.9351 90.352 70.9351 81.644 70.9351ZM105.45 44.7072C105.762 44.0721 106.074 43.437 106.443 42.6864C104.743 42.484 103.221 42.2464 102.375 43.8487C99.808 48.7121 97.302 53.612 94.825 58.5274C94.33 59.5107 94.97 60.3392 96.037 60.2508C97.356 60.1413 98.092 59.2306 98.668 58.0887C100.886 53.694 103.116 49.306 105.45 44.7072ZM41.098 43.6454C43.4977 48.3709 45.8878 53.102 48.3084 57.8157C48.6414 58.4643 49.0349 59.1487 49.5694 59.5887C49.9586 59.9092 50.983 60.1093 51.1042 59.9208C51.5125 59.2856 52.0582 58.2301 51.8163 57.7302C49.5754 53.1009 47.1937 48.5466 44.8226 43.988C44.0235 42.4516 42.6162 42.449 41.2096 42.6259C41.1095 42.6385 41.0656 43.1474 41.098 43.6454Z" fill="#648041"/>
</svg>
