<svg width="16" height="16" viewBox="0 0 16 16" fill="none" xmlns="http://www.w3.org/2000/svg">
<g id="&#236;&#158;&#165;&#235;&#176;&#148;&#234;&#181;&#172;&#235;&#139;&#136; &#236;&#149;&#132;&#236;&#157;&#180;&#236;&#189;&#152;">
<path id="Vector" d="M10.667 12C11.0206 12 11.3598 12.1405 11.6098 12.3905C11.8598 12.6406 12.0003 12.9797 12.0003 13.3333C12.0003 13.687 11.8598 14.0261 11.6098 14.2761C11.3598 14.5262 11.0206 14.6667 10.667 14.6667C10.3134 14.6667 9.97423 14.5262 9.72418 14.2761C9.47414 14.0261 9.33366 13.687 9.33366 13.3333C9.33366 12.9797 9.47414 12.6406 9.72418 12.3905C9.97423 12.1405 10.3134 12 10.667 12ZM10.667 12.6667C10.4902 12.6667 10.3206 12.7369 10.1956 12.8619C10.0706 12.987 10.0003 13.1565 10.0003 13.3333C10.0003 13.5101 10.0706 13.6797 10.1956 13.8047C10.3206 13.9298 10.4902 14 10.667 14C10.8438 14 11.0134 13.9298 11.1384 13.8047C11.2634 13.6797 11.3337 13.5101 11.3337 13.3333C11.3337 13.1565 11.2634 12.987 11.1384 12.8619C11.0134 12.7369 10.8438 12.6667 10.667 12.6667ZM4.66699 12C5.02061 12 5.35975 12.1405 5.6098 12.3905C5.85985 12.6406 6.00033 12.9797 6.00033 13.3333C6.00033 13.687 5.85985 14.0261 5.6098 14.2761C5.35975 14.5262 5.02061 14.6667 4.66699 14.6667C4.31337 14.6667 3.97423 14.5262 3.72418 14.2761C3.47413 14.0261 3.33366 13.687 3.33366 13.3333C3.33366 12.9797 3.47413 12.6406 3.72418 12.3905C3.97423 12.1405 4.31337 12 4.66699 12ZM4.66699 12.6667C4.49018 12.6667 4.32061 12.7369 4.19559 12.8619C4.07056 12.987 4.00033 13.1565 4.00033 13.3333C4.00033 13.5101 4.07056 13.6797 4.19559 13.8047C4.32061 13.9298 4.49018 14 4.66699 14C4.8438 14 5.01337 13.9298 5.1384 13.8047C5.26342 13.6797 5.33366 13.5101 5.33366 13.3333C5.33366 13.1565 5.26342 12.987 5.1384 12.8619C5.01337 12.7369 4.8438 12.6667 4.66699 12.6667ZM12.0003 4H2.84699L4.54699 8H10.0003C10.2203 8 10.4137 7.89333 10.5337 7.73333L12.5337 5.06667C12.6203 4.95333 12.667 4.81333 12.667 4.66667C12.667 4.48986 12.5968 4.32029 12.4717 4.19526C12.3467 4.07024 12.1771 4 12.0003 4ZM10.0003 8.66667H4.58033L4.06699 9.70667L4.00033 10C4.00033 10.1768 4.07056 10.3464 4.19559 10.4714C4.32061 10.5964 4.49018 10.6667 4.66699 10.6667H12.0003V11.3333H4.66699C4.31337 11.3333 3.97423 11.1929 3.72418 10.9428C3.47413 10.6928 3.33366 10.3536 3.33366 10C3.33346 9.7738 3.39082 9.55126 3.50033 9.35333L3.98033 8.37333L1.56033 2.66667H0.666992V2H2.00033L2.56699 3.33333H12.0003C12.3539 3.33333 12.6931 3.47381 12.9431 3.72386C13.1932 3.97391 13.3337 4.31304 13.3337 4.66667C13.3337 5 13.2203 5.28 13.0337 5.50667L11.0937 8.1C10.8537 8.44 10.4537 8.66667 10.0003 8.66667Z" fill="#333333"/>
</g>
</svg>
