<svg width="16" height="17" viewBox="0 0 16 17" fill="none" xmlns="http://www.w3.org/2000/svg">
<g id="&#236;&#158;&#165;&#235;&#176;&#148;&#234;&#181;&#172;&#235;&#139;&#136; &#236;&#149;&#132;&#236;&#157;&#180;&#236;&#189;&#152;">
<path id="Vector" d="M10.667 12.5C11.0206 12.5 11.3598 12.6405 11.6098 12.8905C11.8598 13.1406 12.0003 13.4797 12.0003 13.8333C12.0003 14.187 11.8598 14.5261 11.6098 14.7761C11.3598 15.0262 11.0206 15.1667 10.667 15.1667C10.3134 15.1667 9.97423 15.0262 9.72418 14.7761C9.47414 14.5261 9.33366 14.187 9.33366 13.8333C9.33366 13.4797 9.47414 13.1406 9.72418 12.8905C9.97423 12.6405 10.3134 12.5 10.667 12.5ZM10.667 13.1667C10.4902 13.1667 10.3206 13.2369 10.1956 13.3619C10.0706 13.487 10.0003 13.6565 10.0003 13.8333C10.0003 14.0101 10.0706 14.1797 10.1956 14.3047C10.3206 14.4298 10.4902 14.5 10.667 14.5C10.8438 14.5 11.0134 14.4298 11.1384 14.3047C11.2634 14.1797 11.3337 14.0101 11.3337 13.8333C11.3337 13.6565 11.2634 13.487 11.1384 13.3619C11.0134 13.2369 10.8438 13.1667 10.667 13.1667ZM4.66699 12.5C5.02061 12.5 5.35975 12.6405 5.6098 12.8905C5.85985 13.1406 6.00033 13.4797 6.00033 13.8333C6.00033 14.187 5.85985 14.5261 5.6098 14.7761C5.35975 15.0262 5.02061 15.1667 4.66699 15.1667C4.31337 15.1667 3.97423 15.0262 3.72418 14.7761C3.47413 14.5261 3.33366 14.187 3.33366 13.8333C3.33366 13.4797 3.47413 13.1406 3.72418 12.8905C3.97423 12.6405 4.31337 12.5 4.66699 12.5ZM4.66699 13.1667C4.49018 13.1667 4.32061 13.2369 4.19559 13.3619C4.07056 13.487 4.00033 13.6565 4.00033 13.8333C4.00033 14.0101 4.07056 14.1797 4.19559 14.3047C4.32061 14.4298 4.49018 14.5 4.66699 14.5C4.8438 14.5 5.01337 14.4298 5.1384 14.3047C5.26342 14.1797 5.33366 14.0101 5.33366 13.8333C5.33366 13.6565 5.26342 13.487 5.1384 13.3619C5.01337 13.2369 4.8438 13.1667 4.66699 13.1667ZM12.0003 4.5H2.84699L4.54699 8.5H10.0003C10.2203 8.5 10.4137 8.39333 10.5337 8.23333L12.5337 5.56667C12.6203 5.45333 12.667 5.31333 12.667 5.16667C12.667 4.98986 12.5968 4.82029 12.4717 4.69526C12.3467 4.57024 12.1771 4.5 12.0003 4.5ZM10.0003 9.16667H4.58033L4.06699 10.2067L4.00033 10.5C4.00033 10.6768 4.07056 10.8464 4.19559 10.9714C4.32061 11.0964 4.49018 11.1667 4.66699 11.1667H12.0003V11.8333H4.66699C4.31337 11.8333 3.97423 11.6929 3.72418 11.4428C3.47413 11.1928 3.33366 10.8536 3.33366 10.5C3.33346 10.2738 3.39082 10.0513 3.50033 9.85333L3.98033 8.87333L1.56033 3.16667H0.666992V2.5H2.00033L2.56699 3.83333H12.0003C12.3539 3.83333 12.6931 3.97381 12.9431 4.22386C13.1932 4.47391 13.3337 4.81304 13.3337 5.16667C13.3337 5.5 13.2203 5.78 13.0337 6.00667L11.0937 8.6C10.8537 8.94 10.4537 9.16667 10.0003 9.16667Z" fill="white"/>
</g>
</svg>
